# AST/ASF file generated using VICON BodyLanguage
# -----------------------------------------------
:version 1.10
:name VICON
:units
  mass 1.0
  length 0.45
  angle deg
:documentation
   .ast/.asf automatically generated from VICON data using
   VICON BodyBuilder and BodyLanguage model FoxedUp or BRILLIANT.MOD
:root
   order TX TY TZ RX RY RZ
   axis XYZ
   position 0 0 0  
   orientation 0 0 0 
:bonedata
  begin
     id 1 
     name lhipjoint
     direction 0.630305 -0.712092 0.309259 
     length 2.29033 
     axis 0 0 0  XYZ
  end
  begin
     id 2 
     name lfemur
     direction 0.34202 -0.939693 0  
     length 6.43538  
     axis 0 0 20  XYZ
    dof rx ry rz
    limits (-160.0 20.0)
           (-70.0 70.0)
           (-60.0 70.0)
  end
  begin
     id 3 
     name ltibia
     direction 0.34202 -0.939693 0   
     length 7.43097   
     axis 0 0 20   XYZ
    dof rx
    limits (-10.0 170.0)
  end
  begin
     id 4 
     name lfoot
     direction 0.0334653 -0.0919451 0.995202   
     length 1.78438   
     axis -90 7.62852e-016 20   XYZ
    dof rx rz
    limits (-45.0 90.0)
           (-70.0 20.0)
  end
  begin
     id 5 
     name ltoes
     direction 1.53535e-011 -4.21933e-011 1   
     length 0.90832   
     axis -90 7.62852e-016 20   XYZ
    dof rx
    limits (-90.0 20.0)
  end
  begin
     id 6 
     name rhipjoint
     direction -0.682059 -0.67077 0.291312   
     length 2.43143  
     axis 0 0 0  XYZ 
  end
  begin
     id 7 
     name rfemur
     direction -0.34202 -0.939693 0   
     length 6.63488   
     axis 0 0 -20   XYZ
    dof rx ry rz
    limits (-160.0 20.0)
           (-70.0 70.0)
           (-70.0 60.0)
  end
  begin
     id 8 
     name rtibia
     direction -0.34202 -0.939693 0   
     length 6.86532   
     axis 0 0 -20   XYZ
    dof rx
    limits (-10.0 170.0)
 end
 begin
     id 9 
     name rfoot
     direction -0.105199 -0.289033 0.951521   
     length 1.77126  
     axis -90 -7.62852e-016 -20   XYZ
    dof rx rz
    limits (-45.0 90.0)
           (-20.0 70.0)
  end
  begin
     id 10 
     name rtoes
     direction -1.53551e-011 -4.21978e-011 1   
     length 0.889273   
     axis -90 -7.62852e-016 -20   XYZ
    dof rx
    limits (-90.0 20.0)
  end
  begin
     id 11 
     name lowerback
     direction -0.0514305 0.998089 0.034245   
     length 2.02077   
     axis 0 0 0   XYZ
    dof rx ry rz
    limits (-20.0 45.0)
           (-30.0 30.0)
           (-30.0 30.0)
  end
  begin
     id 12 
     name upperback
     direction 0.0203189 0.999449 -0.0262315   
     length 2.01413   
     axis 0 0 0   XYZ
    dof rx ry rz
    limits (-20.0 45.0)
           (-30.0 30.0)
           (-30.0 30.0)
  end
  begin
     id 13 
     name thorax
     direction 0.0452736 0.998142 -0.0407729   
     length 2.02986   
     axis 0 0 0   XYZ
    dof rx ry rz
    limits (-20.0 45.0)
           (-30.0 30.0)
           (-30.0 30.0)
  end
  begin
     id 14 
     name lowerneck
     direction -0.0180464 0.999645 -0.0195774   
     length 1.59034   
     axis 0 0 0   XYZ
    dof rx ry rz
    limits (-20.0 45.0)
           (-30.0 30.0)
           (-30.0 30.0)
  end
  begin
     id 15 
     name upperneck
     direction 0.0732272 0.979935 -0.18538   
     length 1.57486   
     axis 0 0 0   XYZ
    dof rx ry rz
    limits (-20.0 45.0)
           (-30.0 30.0)
           (-30.0 30.0)
  end
  begin
     id 16
     name head
     direction 0.0252963 0.997909 -0.059472  
     length 1.60334  
     axis 0 0 0   XYZ
    dof rx ry rz
    limits (-20.0 45.0)
           (-30.0 30.0)
           (-30.0 30.0)
  end
  begin
     id 17 
     name lclavicle
     direction 0.943819 0.330449 0.00315172  
     length 3.50322  
     axis 0 0 0   XYZ
    dof ry rz
    limits (-20.0 10.0)
           (0.0 20.0)
  end
  begin
     id 18 
     name lhumerus
     direction 1 -4.48949e-011 2.22502e-028   
     length 4.63208   
     axis 180 -30 -90   XYZ
    dof rx ry rz
    limits (-60.0 90.0)
           (-90.0 90.0)
           (-90.0 90.0)
  end
  begin
     id 19
     name lradius
     direction 1 -4.48967e-011 -4.10197e-027   
     length 3.41924   
     axis 180 -30 -90   XYZ
    dof rx
    limits (-10.0 170.0)
  end
  begin
     id 20
     name lwrist
     direction 1 -4.48987e-011 -1.24264e-027   
     length 1.70962   
     axis 2.50585e-015 90 90   XYZ
    dof ry
    limits (-180.0 0.0)
 end
  begin
     id 21 
     name lhand
     direction 1 -4.48983e-011 -2.48528e-027   
     length 0.62537   
     axis 1.58582e-015 90 90   XYZ
    dof rx rz
    limits (-90.0 90.0)
           (-45.0 45.0)
  end
  begin
     id 22 
     name lfingers
     direction 1 -4.48896e-011 -4.97056e-027   
     length 0.50419   
     axis 3.17164e-015 90 90   XYZ
    dof rx
    limits (0.0 90.0)
  end
  begin
     id 23
     name lthumb
     direction 0.707107 -6.34803e-011 0.707107   
     length 0.723919   
     axis -90 45 2.85299e-015   XYZ
    dof rx rz
    limits (-45.0 45.0)
           (-45.0 45.0)
  end
  begin
     id 24 
     name rclavicle
     direction -0.964499 0.260664 -0.0423695   
     length 3.91997  
     axis 0 0 0   XYZ 
    dof ry rz
    limits (-10.0 20.0)
           (-20.0 0.0)
  end
  begin
     id 25 
     name rhumerus
     direction -1 -4.48957e-011 -1.98656e-027  
     length 4.4064   
     axis 180 30 90   XYZ
    dof rx ry rz
    limits (-90.0 60.0)
           (-90.0 90.0)
           (-90.0 90.0)
  end
  begin
     id 26 
     name rradius
     direction -1 -4.48968e-011 1.96972e-027   
     length 3.44675   
     axis 180 30 90   XYZ
    dof rx
    limits (-10.0 170.0)
  end
  begin
     id 27 
     name rwrist
     direction -1 -4.48974e-011 -1.24264e-027   
     length 1.72338   
     axis 2.50585e-015 -90 -90   XYZ
    dof ry
    limits (-180.0 0.0)
  end
  begin
     id 28
     name rhand
     direction -1 -4.48901e-011 -2.48528e-027   
     length 0.513674   
     axis 1.58582e-015 -90 -90   XYZ
    dof rx rz
    limits (-90.0 90.0)
           (-45.0 45.0)
  end
  begin
     id 29
     name rfingers
     direction -1 -4.48946e-011 -4.97056e-027   
     length 0.414137   
     axis 3.17164e-015 -90 -90   XYZ
    dof rx
    limits (0.0 90.0)
  end
  begin
     id 30
     name rthumb
     direction -0.707107 -6.34859e-011 0.707107   
     length 0.59462   
     axis -90 -45 -2.85299e-015   XYZ
    dof rx rz
    limits (-45.0 45.0)
           (-45.0 45.0)
  end
:hierarchy
  begin
    root lhipjoint rhipjoint lowerback
    lhipjoint lfemur
    lfemur ltibia
    ltibia lfoot
    lfoot ltoes
    rhipjoint rfemur
    rfemur rtibia
    rtibia rfoot
    rfoot rtoes
    lowerback upperback
    upperback thorax
    thorax lowerneck lclavicle rclavicle
    lowerneck upperneck
    upperneck head
    lclavicle lhumerus
    lhumerus lradius
    lradius lwrist
    lwrist lhand lthumb
    lhand lfingers
    rclavicle rhumerus
    rhumerus rradius
    rradius rwrist
    rwrist rhand rthumb
    rhand rfingers
  end

#!OML:ASF E:\inclinewalkrobotboard\Project 1\Capture day 1\Session 1\subject1.ASF
:FULLY-SPECIFIED
:DEGREES
217
root 9.64009 16.7539 -11.4223 13.0774 8.93079 4.37372
lowerback -1.44491 -3.36072 -6.93188
upperback 2.39126 -4.35288 2.52463
thorax 4.02468 -2.41235 6.28867
lowerneck -9.69265 -0.97919 -2.25934
upperneck 33.6328 -1.75378 2.50302
head 12.8395 -0.736241 1.13237
rclavicle -4.77083e-015 1.27222e-014
rhumerus -57.3472 -36.0544 -46.7866
rradius 14.3515
rwrist 45.0202
rhand -10.5209 -37.9328
rfingers 7.12502
rthumb 15.482 -67.3329
lclavicle -4.77083e-015 1.27222e-014
lhumerus -16.7889 -22.1797 100.862
lradius 20.7402
lwrist -22.489
lhand -24.3501 -21.5529
lfingers 7.12502
lthumb 2.13929 8.41616
rfemur -33.4812 6.32231 7.497
rtibia 26.9578
rfoot -9.90993 -14.4537
rtoes -34.9254
lfemur -6.73051 -15.1285 -19.6249
ltibia 24.7504
lfoot -22.5442 -0.547773
ltoes -66.1076
218
root 9.56332 16.7863 -11.2573 13.6398 9.36527 4.92601
lowerback -1.76529 -3.46592 -6.50408
upperback 2.18863 -4.49827 2.75705
thorax 4.00072 -2.46971 6.26885
lowerneck -9.42718 -0.767487 -2.01428
upperneck 33.3742 -1.25295 1.76027
head 12.6506 -0.575413 0.868024
rclavicle 5.56597e-015 2.38542e-015
rhumerus -56.3901 -36.1975 -46.3273
rradius 14.508
rwrist 45.2371
rhand -11.2119 -38.0152
rfingers 7.12502
rthumb 14.8164 -67.4655
lclavicle 5.56597e-015 2.38542e-015
lhumerus -17.0578 -22.6531 100.52
lradius 21.0979
lwrist -21.4217
lhand -24.9912 -21.068
lfingers 7.12502
lthumb 1.52003 8.90635
rfemur -33.4747 5.94231 7.32951
rtibia 27.4853
rfoot -10.7111 -14.4552
rtoes -35.862
lfemur -7.70484 -15.7087 -19.812
ltibia 26.382
lfoot -22.0184 -0.773416
ltoes -66.208
219
root 9.49086 16.8187 -11.087 14.0945 9.98096 5.35374
lowerback -2.33731 -3.63087 -6.0838
upperback 2.14895 -4.71413 3.06552
thorax 4.30902 -2.57991 6.30625
lowerneck -9.06803 -0.62466 -2.05838
upperneck 32.9497 -0.866185 1.2479
head 12.3859 -0.470065 0.728592
rclavicle -4.33351e-014 7.15625e-015
rhumerus -54.153 -35.1826 -47.8024
rradius 14.9974
rwrist 42.8827
rhand -11.7254 -38.1401
rfingers 7.12502
rthumb 14.3216 -67.6262
lclavicle -4.33351e-014 7.15625e-015
lhumerus -17.0803 -22.9481 100.17
lradius 21.3639
lwrist -20.1075
lhand -24.8058 -20.4943
lfingers 7.12502
lthumb 1.69909 9.47865
rfemur -32.9339 5.43388 7.33568
rtibia 27.3406
rfoot -11.2632 -14.3979
rtoes -36.5732
lfemur -8.48054 -16.2375 -19.8393
ltibia 27.7529
lfoot -21.779 -1.18174
ltoes -66.6257
220
root 9.40574 16.8588 -10.9316 14.2958 10.425 5.23753
lowerback -2.72962 -3.6649 -5.47314
upperback 2.17389 -4.78335 3.50222
thorax 4.55478 -2.61294 6.39212
lowerneck -8.68991 -0.588568 -1.8634
upperneck 32.4362 -0.63915 0.561827
head 12.0883 -0.425341 0.462147
rclavicle -2.50469e-014 3.89618e-014
rhumerus -51.9796 -34.5052 -48.9152
rradius 15.4062
rwrist 40.4193
rhand -11.4127 -38.1273
rfingers 7.12502
rthumb 14.6229 -67.5918
lclavicle -2.50469e-014 3.89618e-014
lhumerus -17.0899 -23.1983 99.7332
lradius 21.6754
lwrist -19.0281
lhand -24.8251 -20.4444
lfingers 7.12502
lthumb 1.6805 9.52874
rfemur -32.2637 5.4595 7.95025
rtibia 26.9302
rfoot -11.4102 -14.4592
rtoes -37.5935
lfemur -9.22802 -16.2814 -19.1071
ltibia 28.8739
lfoot -21.7624 -1.77562
ltoes -66.8652
221
root 9.33473 16.8992 -10.7702 14.206 10.324 5.45987
lowerback -2.81852 -3.5381 -5.23174
upperback 2.24331 -4.62975 3.72706
thorax 4.65368 -2.5384 6.50063
lowerneck -8.26557 -0.510982 -1.41645
upperneck 31.9512 -0.381226 -0.225922
head 11.7975 -0.347312 0.121255
rclavicle 1.98785e-015 -4.77083e-015
rhumerus -49.9697 -33.6802 -49.888
rradius 15.8585
rwrist 37.7713
rhand -11.2942 -38.5457
rfingers 7.12502
rthumb 14.7371 -68.0018
lclavicle 1.98785e-015 -4.77083e-015
lhumerus -17.2641 -23.6543 99.3025
lradius 22.0155
lwrist -18.3712
lhand -24.8224 -20.4367
lfingers 7.12502
lthumb 1.68311 9.53646
rfemur -31.1878 5.55264 8.19233
rtibia 26.2891
rfoot -11.8108 -14.063
rtoes -36.5236
lfemur -9.24839 -16.1202 -19.1659
ltibia 29.4188
lfoot -21.8921 -2.16301
ltoes -66.9808
222
root 9.25564 16.9503 -10.6426 14.0444 10.0451 5.8946
lowerback -2.34475 -3.32067 -5.37297
upperback 2.29071 -4.35633 3.87009
thorax 4.41566 -2.4044 6.78326
lowerneck -8.62895 -0.488853 -1.40724
upperneck 32.1276 -0.2572 -0.491946
head 11.9432 -0.320811 0.0348125
rclavicle -3.69739e-014 3.97569e-014
rhumerus -47.9706 -32.6803 -51.0243
rradius 16.5309
rwrist 34.7622
rhand -11.8204 -39.0203
rfingers 7.12502
rthumb 14.2301 -68.5128
lclavicle -3.69739e-014 3.97569e-014
lhumerus -17.4218 -24.4072 98.8724
lradius 22.3651
lwrist -18.1113
lhand -24.9281 -20.2109
lfingers 7.12502
lthumb 1.581 9.76295
rfemur -30.2506 5.95134 8.10452
rtibia 25.7712
rfoot -12.6269 -13.8243
rtoes -33.1634
lfemur -9.57001 -15.7634 -19.4096
ltibia 30.1813
lfoot -21.9983 -2.52309
ltoes -66.9387
223
root 9.19728 17.0011 -10.4854 13.8075 9.70276 6.74319
lowerback -2.3464 -3.10793 -5.69167
upperback 2.51568 -4.05337 3.72895
thorax 4.61776 -2.27356 6.83488
lowerneck -8.05251 -0.440954 -2.03919
upperneck 31.9705 -0.188512 -0.0840858
head 11.763 -0.310247 0.308809
rclavicle -3.57812e-015 4.92986e-014
rhumerus -46.3963 -32.5016 -51.5803
rradius 17.1743
rwrist 32.6041
rhand -12.6607 -38.9113
rfingers 7.12502
rthumb 13.4202 -68.459
lclavicle -3.57812e-015 4.92986e-014
lhumerus -17.7992 -25.4188 98.377
lradius 22.8372
lwrist -18.1617
lhand -25.6449 -20.2964
lfingers 7.12502
lthumb 0.888704 9.68146
rfemur -28.731 5.9918 7.62123
rtibia 24.8276
rfoot -13.0996 -13.3163
rtoes -31.7628
lfemur -9.44511 -15.6071 -20.4584
ltibia 30.6532
lfoot -22.1195 -2.59082
ltoes -66.785
224
root 9.12098 17.059 -10.364 13.6656 9.34499 6.93024
lowerback -2.0546 -2.84354 -5.53669
upperback 2.60675 -3.71858 3.75779
thorax 4.48282 -2.10029 6.81618
lowerneck -7.8959 -0.362427 -1.90701
upperneck 31.8473 -0.00460355 -0.400348
head 11.6798 -0.24593 0.19078
rclavicle -6.75868e-015 -1.74931e-014
rhumerus -44.7669 -32.5756 -52.1723
rradius 17.9014
rwrist 30.5326
rhand -13.0135 -39.0904
rfingers 7.12502
rthumb 13.0802 -68.6602
lclavicle -6.75868e-015 -1.74931e-014
lhumerus -18.34 -26.1509 97.6931
lradius 23.4482
lwrist -18.4601
lhand -26.504 -20.8657
lfingers 7.12502
lthumb 0.0589338 9.11402
rfemur -27.8747 6.63032 7.79974
rtibia 24.2368
rfoot -13.3631 -13.3257
rtoes -31.6431
lfemur -10.1968 -15.1083 -20.3552
ltibia 31.5742
lfoot -22.1909 -2.64876
ltoes -66.4548
225
root 9.06154 17.1025 -10.2377 13.9449 9.3464 7.64341
lowerback -2.27459 -2.82096 -5.72889
upperback 2.62901 -3.66755 3.66447
thorax 4.63005 -2.08447 6.82036
lowerneck -7.58431 -0.241982 -1.85531
upperneck 31.4408 0.232116 -0.669451
head 11.4535 -0.159476 0.111091
rclavicle 3.93594e-014 -3.65764e-014
rhumerus -42.8218 -32.5273 -52.9425
rradius 18.4981
rwrist 28.6795
rhand -13.5044 -39.8373
rfingers 7.12502
rthumb 12.6069 -69.4369
lclavicle 3.93594e-014 -3.65764e-014
lhumerus -18.9283 -26.5348 96.91
lradius 24.1792
lwrist -18.5296
lhand -26.9848 -21.3057
lfingers 7.12502
lthumb -0.40539 8.67369
rfemur -27.0987 6.26047 7.37962
rtibia 23.4677
rfoot -13.5334 -13.0524
rtoes -31.5187
lfemur -11.3069 -15.0909 -20.8565
ltibia 32.4758
lfoot -22.4114 -2.73457
ltoes -66.1517
226
root 9.00734 17.1456 -10.1151 14.3532 9.0677 8.52398
lowerback -2.62747 -2.71581 -6.13766
upperback 2.58169 -3.48507 3.4785
thorax 4.76603 -2.00613 6.85681
lowerneck -7.20312 -0.18599 -1.82354
upperneck 31.3364 0.410939 -1.03693
head 11.3361 -0.113038 -0.00816252
rclavicle -2.78299e-015 6.67916e-014
rhumerus -40.8173 -32.4254 -53.7586
rradius 18.9606
rwrist 27.4285
rhand -14.0479 -40.5132
rfingers 7.12502
rthumb 12.0829 -70.1444
lclavicle -2.78299e-015 6.67916e-014
lhumerus -19.6066 -26.7651 96.2011
lradius 24.8726
lwrist -18.2068
lhand -26.7942 -21.2753
lfingers 7.12502
lthumb -0.221286 8.70434
rfemur -26.6512 5.86507 6.67478
rtibia 22.8605
rfoot -13.5213 -12.5841
rtoes -31.8908
lfemur -12.5361 -15.0923 -21.5702
ltibia 33.2548
lfoot -22.8091 -2.6006
ltoes -65.8717
227
root 8.9346 17.1766 -10.0115 14.5098 8.87842 8.72152
lowerback -2.5224 -2.55117 -6.1763
upperback 2.50466 -3.26995 3.51822
thorax 4.59362 -1.89259 6.94525
lowerneck -7.07527 -0.212549 -1.78507
upperneck 31.2991 0.432042 -1.25902
head 11.2967 -0.121653 -0.0934789
rclavicle -2.90226e-014 -1.59028e-015
rhumerus -38.7987 -31.5143 -55.146
rradius 19.8543
rwrist 25.6301
rhand -14.0949 -41.087
rfingers 7.12502
rthumb 12.0376 -70.7208
lclavicle -2.90226e-014 -1.59028e-015
lhumerus -20.1885 -26.8254 95.5588
lradius 25.2813
lwrist -17.5843
lhand -26.2379 -20.8639
lfingers 7.12502
lthumb 0.315983 9.11562
rfemur -26.3021 6.08977 6.73083
rtibia 22.4336
rfoot -13.2732 -12.5253
rtoes -33.5005
lfemur -13.9598 -14.8867 -21.2713
ltibia 34.1105
lfoot -23.0285 -2.49772
ltoes -65.3963
228
root 8.88534 17.191 -9.86269 14.3884 8.97983 8.07556
lowerback -2.97342 -2.46506 -5.17626
upperback 2.63306 -3.19007 3.74475
thorax 4.92282 -1.83776 6.60113
lowerneck -7.16103 -0.183226 -1.54937
upperneck 31.3099 0.565966 -1.69842
head 11.3205 -0.083912 -0.280683
rclavicle 9.54166e-015 6.36111e-015
rhumerus -36.7179 -29.6928 -57.0351
rradius 21.0053
rwrist 22.9351
rhand -14.2656 -41.5494
rfingers 7.12502
rthumb 11.873 -71.1928
lclavicle 9.54166e-015 6.36111e-015
lhumerus -20.6525 -26.8341 94.9609
lradius 25.3886
lwrist -16.7782
lhand -25.9844 -20.6172
lfingers 7.12502
lthumb 0.560842 9.36185
rfemur -25.1129 5.88459 7.95966
rtibia 21.4476
rfoot -13.2977 -11.9442
rtoes -34.1101
lfemur -14.6853 -14.7137 -20.2578
ltibia 34.3437
lfoot -23.1484 -2.41869
ltoes -65.0908
